<svg width="60" height="60" viewBox="0 0 60 60" fill="none" xmlns="http://www.w3.org/2000/svg">
<rect x="12" y="2" width="36" height="36" rx="12" fill="#20B16D"/>
<g filter="url(#filter0_ddd_4551_2404)">
<rect x="12" y="2" width="36" height="36" rx="12" fill="white" fill-opacity="0.01" shape-rendering="crispEdges"/>
</g>
<g clip-path="url(#clip0_4551_2404)">
<path d="M32.3178 20.5938L33.3278 26.2778C33.351 26.4148 33.2867 26.5519 33.1665 26.6216C33.0462 26.6914 32.8953 26.6792 32.7878 26.5911L30.4012 24.7998C30.1646 24.623 29.8398 24.623 29.6032 24.7998L27.2125 26.5904C27.1051 26.6784 26.9544 26.6906 26.8343 26.621C26.7141 26.5514 26.6497 26.4147 26.6725 26.2778L27.6818 20.5938" stroke="white" stroke-width="1.33333" stroke-linecap="round" stroke-linejoin="round"/>
<path d="M26 17.333C26 19.5407 27.7923 21.333 30 21.333C32.2077 21.333 34 19.5407 34 17.333C34 15.1253 32.2077 13.333 30 13.333C27.7923 13.333 26 15.1253 26 17.333V17.333" stroke="white" stroke-width="1.33333" stroke-linecap="round" stroke-linejoin="round"/>
</g>
<defs>
<filter id="filter0_ddd_4551_2404" x="0" y="0" width="60" height="60" filterUnits="userSpaceOnUse" color-interpolation-filters="sRGB">
<feFlood flood-opacity="0" result="BackgroundImageFix"/>
<feColorMatrix in="SourceAlpha" type="matrix" values="0 0 0 0 0 0 0 0 0 0 0 0 0 0 0 0 0 0 127 0" result="hardAlpha"/>
<feMorphology radius="4" operator="erode" in="SourceAlpha" result="effect1_dropShadow_4551_2404"/>
<feOffset dy="4"/>
<feGaussianBlur stdDeviation="3"/>
<feComposite in2="hardAlpha" operator="out"/>
<feColorMatrix type="matrix" values="0 0 0 0 0 0 0 0 0 0 0 0 0 0 0 0 0 0 0.1 0"/>
<feBlend mode="normal" in2="BackgroundImageFix" result="effect1_dropShadow_4551_2404"/>
<feColorMatrix in="SourceAlpha" type="matrix" values="0 0 0 0 0 0 0 0 0 0 0 0 0 0 0 0 0 0 127 0" result="hardAlpha"/>
<feMorphology radius="3" operator="erode" in="SourceAlpha" result="effect2_dropShadow_4551_2404"/>
<feOffset dy="10"/>
<feGaussianBlur stdDeviation="7.5"/>
<feComposite in2="hardAlpha" operator="out"/>
<feColorMatrix type="matrix" values="0 0 0 0 0 0 0 0 0 0 0 0 0 0 0 0 0 0 0.1 0"/>
<feBlend mode="normal" in2="effect1_dropShadow_4551_2404" result="effect2_dropShadow_4551_2404"/>
<feColorMatrix in="SourceAlpha" type="matrix" values="0 0 0 0 0 0 0 0 0 0 0 0 0 0 0 0 0 0 127 0" result="hardAlpha"/>
<feMorphology radius="2" operator="dilate" in="SourceAlpha" result="effect3_dropShadow_4551_2404"/>
<feOffset/>
<feComposite in2="hardAlpha" operator="out"/>
<feColorMatrix type="matrix" values="0 0 0 0 1 0 0 0 0 1 0 0 0 0 1 0 0 0 1 0"/>
<feBlend mode="normal" in2="effect2_dropShadow_4551_2404" result="effect3_dropShadow_4551_2404"/>
<feBlend mode="normal" in="SourceGraphic" in2="effect3_dropShadow_4551_2404" result="shape"/>
</filter>
<clipPath id="clip0_4551_2404">
<rect width="16" height="16" fill="white" transform="translate(22 12)"/>
</clipPath>
</defs>
</svg>
