<svg width="14" height="14" viewBox="0 0 14 14" fill="none" xmlns="http://www.w3.org/2000/svg">
<path d="M1.16797 5.54162C1.16799 4.21276 1.98723 3.02144 3.22807 2.54586C4.46892 2.07027 5.87453 2.40886 6.76272 3.39729C6.82449 3.46334 6.91087 3.50082 7.0013 3.50082C7.09173 3.50082 7.17812 3.46334 7.23989 3.39729C8.12545 2.40224 9.53449 2.05926 10.7783 2.53599C12.0221 3.01272 12.841 4.20959 12.8346 5.54162C12.8346 6.87746 11.9596 7.87496 11.0846 8.74996L7.88097 11.8492C7.66109 12.1017 7.34331 12.2476 7.00847 12.2498C6.67363 12.2519 6.35403 12.11 6.13097 11.8603L2.91797 8.74996C2.04297 7.87496 1.16797 6.88329 1.16797 5.54162" stroke="#1B74DA" stroke-width="1.16667" stroke-linecap="round" stroke-linejoin="round"/>
<path d="M1.87891 7.58317H5.54224L5.83391 6.99984L7.00057 9.62484L8.16724 5.5415L9.04224 7.58317H12.1164" stroke="#1B74DA" stroke-width="1.16667" stroke-linecap="round" stroke-linejoin="round"/>
</svg>
