<svg width="14" height="14" viewBox="0 0 14 14" fill="none" xmlns="http://www.w3.org/2000/svg">
<path d="M9.33464 11.6665V2.33317C9.33464 2.02375 9.21172 1.72701 8.99293 1.50821C8.77413 1.28942 8.47739 1.1665 8.16797 1.1665H5.83464C5.52522 1.1665 5.22847 1.28942 5.00968 1.50821C4.79089 1.72701 4.66797 2.02375 4.66797 2.33317V11.6665" stroke="#1B74DA" stroke-width="1.16667" stroke-linecap="round" stroke-linejoin="round"/>
<path d="M11.668 3.5H2.33464C1.6903 3.5 1.16797 4.02233 1.16797 4.66667V10.5C1.16797 11.1443 1.6903 11.6667 2.33464 11.6667H11.668C12.3123 11.6667 12.8346 11.1443 12.8346 10.5V4.66667C12.8346 4.02233 12.3123 3.5 11.668 3.5Z" stroke="#1B74DA" stroke-width="1.16667" stroke-linecap="round" stroke-linejoin="round"/>
</svg>
