<svg width="14" height="14" viewBox="0 0 14 14" fill="none" xmlns="http://www.w3.org/2000/svg">
<path d="M7 1.75V12.25" stroke="#1B74DA" stroke-width="1.16667" stroke-linecap="round" stroke-linejoin="round"/>
<path d="M11.082 4.66683L12.832 9.3335C12.3272 9.71214 11.7131 9.91683 11.082 9.91683C10.451 9.91683 9.8369 9.71214 9.33203 9.3335L11.082 4.66683ZM11.082 4.66683V4.0835" stroke="#1B74DA" stroke-width="1.16667" stroke-linecap="round" stroke-linejoin="round"/>
<path d="M1.75 4.08317H2.33333C3.96106 4.08317 5.56377 3.68249 7 2.9165C8.43623 3.68249 10.0389 4.08317 11.6667 4.08317H12.25" stroke="#1B74DA" stroke-width="1.16667" stroke-linecap="round" stroke-linejoin="round"/>
<path d="M2.91797 4.66683L4.66797 9.3335C4.1631 9.71214 3.54905 9.91683 2.91797 9.91683C2.28689 9.91683 1.67283 9.71214 1.16797 9.3335L2.91797 4.66683ZM2.91797 4.66683V4.0835" stroke="#1B74DA" stroke-width="1.16667" stroke-linecap="round" stroke-linejoin="round"/>
<path d="M4.08203 12.25H9.91536" stroke="#1B74DA" stroke-width="1.16667" stroke-linecap="round" stroke-linejoin="round"/>
</svg>
